<?xml version="1.0" encoding="UTF-8"?> <svg xmlns="http://www.w3.org/2000/svg" width="147.527" height="68.424" viewBox="0 0 147.527 68.424"><g transform="translate(7565.937 101.134)"><path d="M629.494,488.9q-.2.842-.789.841a.824.824,0,0,1-.589-.241,1.746,1.746,0,0,1-.41-.663,4.8,4.8,0,0,1-.242-.957c-.029-.183-.05-.372-.063-.567l2.335-.727a12.053,12.053,0,0,1-.241,2.314m2.513-4.079h-.062l-4.554,1.438a14.634,14.634,0,0,1,.189-1.923q.2-1.2.494-2.292c.028-.126.074-.312.136-.558a6.208,6.208,0,0,1,.242-.736,2.893,2.893,0,0,1,.347-.641.578.578,0,0,1,.474-.274.643.643,0,0,1,.494.221,1.6,1.6,0,0,1,.315.546,3.525,3.525,0,0,1,.168.726,6.1,6.1,0,0,1,.053.778c0,.294-.007.576-.021.841s-.035.5-.063.694a.435.435,0,0,0,.2.3.667.667,0,0,0,.347.095.372.372,0,0,0,.358-.2,1.531,1.531,0,0,0,.147-.494,3.467,3.467,0,0,0,.031-.61c-.007-.21-.01-.392-.01-.547a6.059,6.059,0,0,0-.116-1.146,4.579,4.579,0,0,0-.357-1.1,2.484,2.484,0,0,0-.641-.841,1.455,1.455,0,0,0-.967-.336,1.333,1.333,0,0,0-1.051.526,4.668,4.668,0,0,0-.726,1.409,16.573,16.573,0,0,0-.557,1.987q-.231,1.062-.357,2.092a14.466,14.466,0,0,0-.126,1.7c0,.03,0,.063,0,.093l-4.167,1.317a.447.447,0,0,0-.189.4.759.759,0,0,0,.105.389.311.311,0,0,0,.274.179.128.128,0,0,0,.084-.021l3.949-1.228c.009.1.015.193.025.292a5.577,5.577,0,0,0,.326,1.377,2.728,2.728,0,0,0,.684,1.041,1.8,1.8,0,0,0,1.987.2,1.475,1.475,0,0,0,.62-.694c0,.112.021.357.062.736s.087.82.136,1.325.1,1.041.157,1.609.112,1.1.169,1.609.1.946.136,1.325.059.623.074.736a.193.193,0,0,0,.116.147.485.485,0,0,0,.2.043.744.744,0,0,0,.4-.105.315.315,0,0,0,.169-.274l.021.021q-.042-.526-.116-1.389t-.157-1.882q-.084-1.021-.179-2.135t-.189-2.135q-.1-1.019-.169-1.882t-.116-1.387l1.241-.4a.3.3,0,0,0,.221-.169.718.718,0,0,0,.053-.274.777.777,0,0,0-.084-.368.261.261,0,0,0-.232-.155" transform="translate(-8123.229 -530.061)" fill="#fff"></path><path d="M729.272,471.221a5.305,5.305,0,0,1-.61,1.451,3.006,3.006,0,0,1-.872.925,1.969,1.969,0,0,1-1.02.347,1.745,1.745,0,0,1-.978-.315,2.76,2.76,0,0,1-.789-.851l3.408-8.738c.068.136.134.28.2.432a11.257,11.257,0,0,1,.641,2.156,13.487,13.487,0,0,1,.253,2.692,7.225,7.225,0,0,1-.231,1.9m-4.889.01a8.325,8.325,0,0,1-.221-2.019v-.284a2.076,2.076,0,0,1,.021-.284A14.737,14.737,0,0,1,725.15,464q.693-1.493,1.661-1.493a1.313,1.313,0,0,1,.936.526l0,.005-3.287,8.49c-.027-.1-.056-.19-.081-.292m5.962-2.818a16.727,16.727,0,0,0-.484-3.123,9.9,9.9,0,0,0-.841-2.208c-.047-.084-.094-.164-.142-.242l.689-1.766a.123.123,0,0,0,.021-.084c0-.1-.071-.189-.21-.274a.811.811,0,0,0-.421-.126.332.332,0,0,0-.315.147l-.471,1.219c-.07-.063-.139-.124-.211-.178a1.944,1.944,0,0,0-1.167-.431,2.022,2.022,0,0,0-1.262.5,4.488,4.488,0,0,0-1.136,1.493,10.121,10.121,0,0,0-.82,2.44,15.962,15.962,0,0,0-.315,3.365,9.71,9.71,0,0,0,.3,2.587,7.412,7.412,0,0,0,.4,1.1l-.658,1.7a.118.118,0,0,0-.021.084c0,.084.07.175.21.274a.728.728,0,0,0,.42.147.305.305,0,0,0,.253-.105l.416-1.069a3.023,3.023,0,0,0,.887.764,2.637,2.637,0,0,0,1.282.347,2.676,2.676,0,0,0,1.325-.367,3.7,3.7,0,0,0,1.167-1.084,5.893,5.893,0,0,0,.831-1.766,8.425,8.425,0,0,0,.315-2.418c0-.154,0-.308-.01-.462s-.02-.309-.033-.463" transform="translate(-8213.913 -513.782)" fill="#fff"></path><path d="M799.051,485.025a.552.552,0,0,0-.126-.064q.042-1.177.074-2.4t.074-2.418a1.661,1.661,0,0,1,.526-.042,2.32,2.32,0,0,1,.536.105,1.6,1.6,0,0,1,.462.231,1.065,1.065,0,0,1,.305.336,1.573,1.573,0,0,1,.115,1.094,4.623,4.623,0,0,1-.452,1.167,7.1,7.1,0,0,1-.746,1.1q-.433.526-.768.883m5.425,1.893q-1.6-.568-2.639-1t-1.651-.663a7.2,7.2,0,0,0,.789-1,7.659,7.659,0,0,0,.62-1.136,5.285,5.285,0,0,0,.357-1.125,2.627,2.627,0,0,0,.021-.988,2.182,2.182,0,0,0-1.02-1.609,3.012,3.012,0,0,0-1.882-.284l.021-.82a.292.292,0,0,0-.179-.263,1.055,1.055,0,0,0-.379-.116.757.757,0,0,0-.358.042.185.185,0,0,0-.136.21l-.042,1.2a4.23,4.23,0,0,1-.6.284,6.388,6.388,0,0,0-.6.263.324.324,0,0,0-.064.274.913.913,0,0,0,.115.357.968.968,0,0,0,.221.274.176.176,0,0,0,.252,0,.827.827,0,0,0,.231-.105q.189-.1.421-.21l-.169,4.815a.91.91,0,0,0-.295.579.989.989,0,0,0,.253.725v1.568q0,.746-.042,1.5a.377.377,0,0,0,.21.253.888.888,0,0,0,.347.095.877.877,0,0,0,.336-.043c.105-.035.158-.095.158-.178l.171-3.323.4-.379,4.732,1.725a.287.287,0,0,0,.3-.052.688.688,0,0,0,.2-.284.73.73,0,0,0,.042-.347.286.286,0,0,0-.148-.243" transform="translate(-8279.737 -529.3)" fill="#fff"></path><path d="M918.042,490.691a3.765,3.765,0,0,1-.41,1.461,3.261,3.261,0,0,1-.956,1.115,3.073,3.073,0,0,1-1.494.558l.126-8.538a3.676,3.676,0,0,1,.936.736,6.058,6.058,0,0,1,.757,1,7.67,7.67,0,0,1,.547,1.072,9.542,9.542,0,0,1,.348.978,4.924,4.924,0,0,1,.148,1.619m.336-3.217a8.1,8.1,0,0,0-.715-1.325,6.721,6.721,0,0,0-.978-1.156,5.423,5.423,0,0,0-1.251-.883.962.962,0,0,0-.7-.074.588.588,0,0,0-.474.473l-.105,10.115v.021a.489.489,0,0,0,.157.315.6.6,0,0,0,.295.158.649.649,0,0,0,.326-.021.52.52,0,0,0,.274-.2,5.588,5.588,0,0,0,2-.767,3.984,3.984,0,0,0,1.283-1.325,4.276,4.276,0,0,0,.557-1.787,6.639,6.639,0,0,0-.179-2.156,10.63,10.63,0,0,0-.482-1.389" transform="translate(-8384.934 -534.756)" fill="#fff"></path><path d="M971.108,493.64a.218.218,0,0,0-.231-.126c-.084,0-.287.01-.61.031s-.662.039-1.02.053-.684.013-.978,0-.462-.049-.5-.105a3.07,3.07,0,0,1-.084-.7q-.042-.642-.084-1.577c-.017-.361-.03-.741-.042-1.137l2.334-.178a.207.207,0,0,0,.169-.169.961.961,0,0,0,.031-.326.924.924,0,0,0-.084-.336c-.049-.105-.115-.158-.2-.158l-2.273.157q-.019-1.01-.019-1.892,0-.935.042-1.587c.028-.434.07-.673.126-.715a1.05,1.05,0,0,1,.452-.158q.369-.073.8-.147t.841-.126l.579-.074c.084,0,.144-.056.179-.169a.97.97,0,0,0,.043-.347.672.672,0,0,0-.105-.326.256.256,0,0,0-.263-.126l-.715.084q-.547.063-1.136.169c-.392.07-.751.151-1.072.241s-.5.193-.547.3a3.932,3.932,0,0,0-.136.988q-.053.8-.064,1.914t0,2.366q.011,1.251.053,2.323t.115,1.819a1.834,1.834,0,0,0,.179.831,1.5,1.5,0,0,0,.746.168q.6.042,1.294.031t1.315-.052a6.947,6.947,0,0,0,.81-.084c.084-.014.139-.077.169-.189a.832.832,0,0,0,.01-.348,1.03,1.03,0,0,0-.117-.325" transform="translate(-8431.86 -534.214)" fill="#fff"></path><path d="M1014.747,484.63l-4.248.421c-.056-.013-.1.032-.126.136a1.341,1.341,0,0,0-.042.347,1.1,1.1,0,0,0,.053.348c.035.105.095.151.179.136l1.578-.154.125,9.68a.23.23,0,0,0,.169.231.89.89,0,0,0,.369.053.769.769,0,0,0,.347-.095.187.187,0,0,0,.105-.231l-.126-9.734,1.535-.15a.2.2,0,0,0,.231-.126.853.853,0,0,0,.064-.336.991.991,0,0,0-.064-.357c-.043-.112-.093-.169-.148-.169" transform="translate(-8471.104 -535.32)" fill="#fff"></path><path d="M1098.2,493.64a.217.217,0,0,0-.231-.126q-.126,0-.61.031c-.323.021-.662.039-1.02.053s-.684.013-.977,0-.462-.049-.5-.105a3.074,3.074,0,0,1-.084-.7q-.042-.642-.084-1.577c-.017-.361-.03-.741-.042-1.137l2.333-.178a.207.207,0,0,0,.169-.169.955.955,0,0,0,.031-.326.921.921,0,0,0-.084-.336c-.049-.105-.116-.158-.2-.158l-2.273.157q-.019-1.01-.019-1.892,0-.935.042-1.587c.028-.434.07-.673.126-.715a1.051,1.051,0,0,1,.452-.158q.368-.073.8-.147t.841-.126l.579-.074c.084,0,.144-.056.179-.169a.976.976,0,0,0,.042-.347.662.662,0,0,0-.105-.326.255.255,0,0,0-.262-.126l-.715.084q-.546.063-1.136.169t-1.072.241c-.323.092-.505.193-.547.3a3.919,3.919,0,0,0-.136.988q-.053.8-.064,1.914t0,2.366q.011,1.251.053,2.323t.115,1.819a1.836,1.836,0,0,0,.179.831,1.5,1.5,0,0,0,.746.168q.6.042,1.294.031t1.315-.052a6.945,6.945,0,0,0,.81-.084c.084-.014.14-.077.168-.189a.828.828,0,0,0,.011-.348,1.059,1.059,0,0,0-.118-.325" transform="translate(-8545.721 -534.214)" fill="#fff"></path><path d="M1146.667,476.612a1.26,1.26,0,0,0-.379-.052.833.833,0,0,0-.379.084.216.216,0,0,0-.147.231l-.1,9.968-2.818-9.442a.571.571,0,0,0-.264-.231.854.854,0,0,0-.368-.084.613.613,0,0,0-.336.095.437.437,0,0,0-.189.284l-.042,11.146a.247.247,0,0,0,.179.221.822.822,0,0,0,.347.031,1.052,1.052,0,0,0,.357-.105.384.384,0,0,0,.21-.21q.042-1.913.01-3.953t.01-4.038l2.461,8.285a.452.452,0,0,0,.3.2,1.242,1.242,0,0,0,.452.021,1.1,1.1,0,0,0,.41-.136.311.311,0,0,0,.178-.274q.042-1.619.084-3.091t.084-2.892q.042-1.419.063-2.86t.043-3.018c0-.084-.054-.145-.167-.179" transform="translate(-8588.745 -528.09)" fill="#fff"></path><path d="M1202.812,490.1q-.231-.084-.715-.231t-1.02-.315q-.537-.169-.989-.347a1.6,1.6,0,0,1-.579-.326q-.231-.231-.021-.768a9.163,9.163,0,0,1,.663-1.293q.453-.757,1.041-1.692a21.039,21.039,0,0,0,1.094-1.966.256.256,0,0,0,.063-.295.715.715,0,0,0-.21-.295.6.6,0,0,0-.336-.147.4.4,0,0,0-.336.126q-.189.295-.61.977t-.883,1.472q-.462.788-.874,1.546c-.066.123-.128.238-.184.348q.03-1.238.07-2.5.042-1.357.1-2.871a.257.257,0,0,0-.147-.231.664.664,0,0,0-.336-.084.722.722,0,0,0-.347.084.286.286,0,0,0-.157.274q-.064,1.515-.1,2.871t-.074,2.671q-.031,1.315-.062,2.671t-.032,2.892a.236.236,0,0,0,.147.221.72.72,0,0,0,.326.074.7.7,0,0,0,.336-.084.321.321,0,0,0,.179-.253q0-1.447.029-2.75c.134.065.3.136.5.216.294.119.62.238.979.357s.718.231,1.082.336a10.051,10.051,0,0,0,1.01.241.211.211,0,0,0,.252-.052.716.716,0,0,0,.19-.295,1.052,1.052,0,0,0,.063-.347.253.253,0,0,0-.107-.232" transform="translate(-8639.087 -532.247)" fill="#fff"></path><path d="M1253.947,493.64a.218.218,0,0,0-.231-.126q-.127,0-.61.031t-1.02.053c-.357.013-.684.013-.979,0s-.462-.049-.5-.105a3.058,3.058,0,0,1-.084-.7q-.042-.642-.084-1.577c-.017-.361-.03-.741-.042-1.137l2.333-.178a.208.208,0,0,0,.169-.169.965.965,0,0,0,.031-.326.923.923,0,0,0-.084-.336c-.049-.105-.116-.158-.2-.158l-2.273.157q-.019-1.01-.019-1.892,0-.935.042-1.587c.028-.434.07-.673.126-.715a1.051,1.051,0,0,1,.452-.158q.368-.073.8-.147t.841-.126l.579-.074c.084,0,.144-.056.179-.169a.974.974,0,0,0,.042-.347.662.662,0,0,0-.105-.326.255.255,0,0,0-.262-.126l-.715.084q-.546.063-1.136.169t-1.072.241c-.323.092-.505.193-.547.3a3.927,3.927,0,0,0-.136.988q-.053.8-.063,1.914t0,2.366q.011,1.251.053,2.323t.115,1.819a1.836,1.836,0,0,0,.179.831,1.5,1.5,0,0,0,.746.168q.6.042,1.294.031t1.315-.052a6.959,6.959,0,0,0,.81-.084c.084-.014.14-.077.169-.189a.83.83,0,0,0,.01-.348,1.036,1.036,0,0,0-.117-.325" transform="translate(-8685.259 -534.214)" fill="#fff"></path><path d="M1300.923,492.919a.269.269,0,0,0-.231-.105c-.07.028-.221.074-.452.136s-.477.126-.736.19-.508.112-.746.147a.834.834,0,0,1-.462-.01c-.071-.028-.115-.262-.136-.7s-.028-.992-.021-1.651.028-1.377.063-2.156.067-1.528.095-2.25.056-1.359.084-1.913.043-.943.043-1.167a.257.257,0,0,0-.148-.231.739.739,0,0,0-.326-.095.631.631,0,0,0-.326.064.3.3,0,0,0-.169.241q-.106,1.2-.167,2.492t-.105,2.6q-.042,1.3-.052,2.6t.031,2.513a1.166,1.166,0,0,0,.263.673.583.583,0,0,0,.578.189q.611-.1,1.441-.274t1.63-.4a.244.244,0,0,0,.126-.241.861.861,0,0,0-.074-.347,1.084,1.084,0,0,0-.2-.295" transform="translate(-8728.049 -533.955)" fill="#fff"></path><path d="M1326.876,484.63l-4.248.421c-.057-.013-.1.032-.126.136a1.335,1.335,0,0,0-.043.347,1.088,1.088,0,0,0,.053.348c.034.105.095.151.179.136l1.578-.154.125,9.68a.23.23,0,0,0,.168.231.89.89,0,0,0,.369.053.77.77,0,0,0,.347-.095.187.187,0,0,0,.105-.231l-.126-9.734,1.535-.15a.2.2,0,0,0,.231-.126.853.853,0,0,0,.063-.336.993.993,0,0,0-.063-.357c-.043-.112-.092-.169-.148-.169" transform="translate(-8750.743 -535.32)" fill="#fff"></path><path d="M12.475,7.21V26.963H5.083V7.21H0V52.432H5.083V32.045h7.392V52.432h5.083V7.21Z" transform="translate(-7565.937 -107.593)" fill="#fff"></path><path d="M210.383,8.779a3.5,3.5,0,0,1,1.068-2.715,3.97,3.97,0,0,1,5.227,0,3.46,3.46,0,0,1,1.1,2.715V38a3.441,3.441,0,0,1-1.1,2.744,4.059,4.059,0,0,1-5.227,0A3.48,3.48,0,0,1,210.383,38Zm9.9,35.577a8.505,8.505,0,0,0,1.877-2.772A8.992,8.992,0,0,0,222.857,38V8.779a9.3,9.3,0,0,0-.693-3.7,8.2,8.2,0,0,0-1.877-2.744A8.263,8.263,0,0,0,217.515.606,9.567,9.567,0,0,0,214.079,0,9.4,9.4,0,0,0,210.7.606a8.555,8.555,0,0,0-2.8,1.733,7.974,7.974,0,0,0-1.906,2.744,9.307,9.307,0,0,0-.693,3.7V38a8.992,8.992,0,0,0,.693,3.581,8.272,8.272,0,0,0,1.906,2.772,8.7,8.7,0,0,0,2.8,1.79,9.008,9.008,0,0,0,3.379.635,9.2,9.2,0,0,0,3.437-.635,8.366,8.366,0,0,0,2.771-1.789" transform="translate(-7749.867 -101.134)" fill="#fff"></path><path d="M424.468,50.873a8.493,8.493,0,0,0,1.877-2.772,9.15,9.15,0,0,0,.693-3.639V7.21h-5.083V44.462a3.394,3.394,0,0,1-1.1,2.83,4.377,4.377,0,0,1-5.227,0,3.435,3.435,0,0,1-1.068-2.83V7.21H409.48V44.462a9.15,9.15,0,0,0,.693,3.639,8.251,8.251,0,0,0,4.707,4.533,9.376,9.376,0,0,0,3.379.607,9.54,9.54,0,0,0,3.436-.607,8,8,0,0,0,2.773-1.761" transform="translate(-7932.795 -107.593)" fill="#fff"></path><path d="M614.368,44.211a8.557,8.557,0,0,0,2.744,1.877,8.94,8.94,0,0,0,3.61.693,9.552,9.552,0,0,0,4.245-.866,8.036,8.036,0,0,0,2.887-2.339,9.315,9.315,0,0,0,1.617-3.408,16.28,16.28,0,0,0,.491-4.014,13.8,13.8,0,0,0-.607-4.1,22.41,22.41,0,0,0-1.559-3.784,32.452,32.452,0,0,0-2.166-3.551q-1.213-1.733-2.425-3.35-.924-1.213-2.021-2.6a34.423,34.423,0,0,1-2.021-2.83,18.368,18.368,0,0,1-1.53-2.917,7.473,7.473,0,0,1-.607-2.858,11.354,11.354,0,0,1,.145-1.819,4.492,4.492,0,0,1,.578-1.618A3.567,3.567,0,0,1,618.9,5.546a3.429,3.429,0,0,1,1.877-.462,3.557,3.557,0,0,1,2.6,1.1,3.556,3.556,0,0,1,1.1,2.6v1.386l5.083,1.1V8.779q0-4.389-2.484-6.584a9.156,9.156,0,0,0-6.3-2.2,8.263,8.263,0,0,0-6.526,2.541A9.734,9.734,0,0,0,612,9.241a14.431,14.431,0,0,0,1.011,5.776,26.415,26.415,0,0,0,2.744,4.736q1.1,1.5,2.281,3.032t2.31,3.09q1.127,1.56,2.109,3.177a21.563,21.563,0,0,1,1.675,3.408,10.408,10.408,0,0,1,.636,2.31,18.1,18.1,0,0,1,.173,2.656,4.827,4.827,0,0,1-.982,3.089,3.594,3.594,0,0,1-3,1.242,3.842,3.842,0,0,1-2.685-1.1A3.486,3.486,0,0,1,617.082,38V36.675L612,35.577V38a9.542,9.542,0,0,0,.607,3.437,8,8,0,0,0,1.761,2.772" transform="translate(-8114.235 -101.134)" fill="#fff"></path><path d="M832.808,47.351h-9.876V31.7h5.718V26.616h-5.718V12.293h9.876V7.21H817.85V52.432h14.958Z" transform="translate(-8298.658 -107.593)" fill="#fff"></path><rect width="5.083" height="45.222" transform="translate(-7441.569 -100.383)" fill="#fff"></rect><path d="M1268.62,7.22V12.3h5.14v40.14h5.083V12.3h5.255V7.22Z" transform="translate(-8702.508 -107.602)" fill="#fff"></path><path d="M970.684,16.854l-1.98,14.88h6.713V7.858h3.941V31.735h2.659v4h-2.659V51.121h-3.941V35.733H964.462l2.628-18.877h3.594ZM980.4,36.77h2.659V30.7H980.4V6.82h-6.017V30.7H969.89l1.98-14.88h-5.683L963.27,36.769h11.109V52.159H980.4Z" transform="translate(-8428.941 -107.244)" fill="#fff"></path></g></svg> 