<svg xmlns="http://www.w3.org/2000/svg" width="32" height="32" fill="none"><g clip-path="url(#a)"><path fill="#fff" d="M23 4H9a5 5 0 0 0-5 5v14a5 5 0 0 0 5 5h14a5 5 0 0 0 5-5V9a5 5 0 0 0-5-5zM12 21.5a1.5 1.5 0 0 1-3 0v-8a1.5 1.5 0 0 1 3 0v8zm-1.5-10.768c-.966 0-1.75-.79-1.75-1.764s.784-1.764 1.75-1.764 1.75.79 1.75 1.764-.783 1.764-1.75 1.764zM24 21.5a1.5 1.5 0 0 1-3 0v-4.104c0-3.368-4-3.113-4 0V21.5a1.5 1.5 0 0 1-3 0v-8a1.5 1.5 0 0 1 3 0v.265c1.396-2.586 7-2.777 7 2.476V21.5z"/></g><defs><clipPath id="a"><path fill="#fff" d="M4 4h24v24H4z"/></clipPath></defs></svg>